<svg xmlns="http://www.w3.org/2000/svg" width="43.212" height="37.411" viewBox="0 0 43.212 37.411">
  <g id="Group_2021" data-name="Group 2021" transform="translate(-948.031 -1230.325)">
    <g id="Group_1838" data-name="Group 1838" transform="translate(948.031 1230.325)">
      <path id="Path_1535" data-name="Path 1535" d="M-1206.123-553.623h-.868v-16.564c0-.362,0-.725.005-1.089h.868a1.472,1.472,0,0,0,1.456-1.456,1.48,1.48,0,0,0-1.456-1.456h-2.233c-.032,0-.064,0-.1,0h-5.807v-2.19c0-.873.014-6.388.009-8.808l.235,0h.047a1.472,1.472,0,0,0,1.456-1.456,1.483,1.483,0,0,0-1.456-1.456h-1.651c-.032,0-.064,0-.1,0h-17.864c-.783,0-1.572-.018-2.36-.005-.667-.005-1.335-.01-2,.005h-.047a1.472,1.472,0,0,0-1.456,1.456,1.484,1.484,0,0,0,1.456,1.456h.285v11h-6.383c-.041,0-.082,0-.122.006h-2.213a1.472,1.472,0,0,0-1.456,1.456,1.484,1.484,0,0,0,1.456,1.456h.879v16.564c0,.36,0,.722-.005,1.085-.262,0-.524,0-.787,0h-.081a1.472,1.472,0,0,0-1.456,1.456,1.479,1.479,0,0,0,1.456,1.456h2.233c.032,0,.064,0,.1,0h25.7c.85,0,1.707.022,2.563,0,.035,0,.069,0,.1,0h7.263c.041,0,.082,0,.122-.006h.2c.641,0,1.275.012,1.916,0h.082a1.472,1.472,0,0,0,1.456-1.456A1.484,1.484,0,0,0-1206.123-553.623Zm-27.962-31.567h15.708c.4,0,.807,0,1.211.008v12.269a1.2,1.2,0,0,0-.006.181c0,.027,0,.054.006.081v17.088c0,.644-.011,1.292-.015,1.939h-3.783v-6.243h.233a1.472,1.472,0,0,0,1.456-1.456,1.483,1.483,0,0,0-1.456-1.456h-1.592c-.032,0-.064,0-.1,0h-8.794a1.472,1.472,0,0,0-1.456,1.456,1.483,1.483,0,0,0,1.456,1.456h.233v6.243h-2.593c-.4,0-.8-.006-1.2-.01v-16.56c0-.815.016-1.636,0-2.456,0-.027,0-.055,0-.083v-.006c0-.041,0-.082-.006-.122v-3.518c0-.873.022-6.393.014-8.812Zm8.987,31.567h-2.97v-6.243h4.193v6.243Zm13.232-17.653h1.963v16.57c0,.36-.005.721-.009,1.083h-4.341v-16.564c0-.362.005-.725.009-1.089Zm-28.212,17.653h-2.545v-16.57c0-.36.005-.721.009-1.083h4.918v15.714c0,.644-.008,1.292-.01,1.939h-2.372Z" transform="translate(1247.872 588.113)" fill="#1dbab5"/>
      <path id="Path_1536" data-name="Path 1536" d="M-950.395-272.368a1.483,1.483,0,0,0,1.456-1.456V-275.2a1.472,1.472,0,0,0-1.456-1.456,1.483,1.483,0,0,0-1.456,1.456v1.375A1.472,1.472,0,0,0-950.395-272.368Z" transform="translate(969.092 294.795)" fill="#4adda4"/>
      <path id="Path_1537" data-name="Path 1537" d="M-840.4-272.368a1.484,1.484,0,0,0,1.456-1.456V-275.2a1.472,1.472,0,0,0-1.456-1.456,1.483,1.483,0,0,0-1.456,1.456v1.375A1.472,1.472,0,0,0-840.4-272.368Z" transform="translate(865.498 294.795)" fill="#4adda4"/>
      <path id="Path_1538" data-name="Path 1538" d="M-950.395-381.568a1.487,1.487,0,0,0,1.456-1.456V-384.4a1.472,1.472,0,0,0-1.456-1.456,1.483,1.483,0,0,0-1.456,1.456v1.375A1.472,1.472,0,0,0-950.395-381.568Z" transform="translate(969.092 397.635)" fill="#4adda4"/>
      <path id="Path_1539" data-name="Path 1539" d="M-840.4-381.668a1.484,1.484,0,0,0,1.456-1.456V-384.5a1.472,1.472,0,0,0-1.456-1.456,1.483,1.483,0,0,0-1.456,1.456v1.374A1.472,1.472,0,0,0-840.4-381.668Z" transform="translate(865.498 397.73)" fill="#4adda4"/>
      <path id="Path_1540" data-name="Path 1540" d="M-950.395-487.464a1.487,1.487,0,0,0,1.456-1.456v-1.374a1.472,1.472,0,0,0-1.456-1.456,1.483,1.483,0,0,0-1.456,1.456v1.374A1.472,1.472,0,0,0-950.395-487.464Z" transform="translate(969.092 497.364)" fill="#4adda4"/>
      <path id="Path_1541" data-name="Path 1541" d="M-840.4-487.564a1.483,1.483,0,0,0,1.456-1.456v-1.374a1.472,1.472,0,0,0-1.456-1.456,1.483,1.483,0,0,0-1.456,1.456v1.374A1.472,1.472,0,0,0-840.4-487.564Z" transform="translate(865.498 497.458)" fill="#4adda4"/>
    </g>
    <rect id="Rectangle_183" data-name="Rectangle 183" width="9" height="20" transform="translate(951 1245.325)" fill="#1dbab5" opacity="0.15"/>
    <rect id="Rectangle_184" data-name="Rectangle 184" width="9" height="20" transform="translate(979 1245.325)" fill="#1dbab5" opacity="0.15"/>
  </g>
</svg>
