<?xml version="1.0" encoding="utf-8"?>
<!-- Generator: Adobe Illustrator 25.0.1, SVG Export Plug-In . SVG Version: 6.00 Build 0)  -->
<svg version="1.1" id="Layer_1" xmlns="http://www.w3.org/2000/svg" xmlns:xlink="http://www.w3.org/1999/xlink" x="0px" y="0px"
	 viewBox="0 0 76.6 70.3" style="enable-background:new 0 0 76.6 70.3;" xml:space="preserve">
<style type="text/css">
	.st0{fill:#2BBAB4;}
	.st1{fill:#ECFCF6;}
	.st2{opacity:0.1;fill:#4ADDA4;enable-background:new    ;}
</style>
<g id="layer1" transform="translate(-1.029 -281.635)">
	<g id="Group_344" transform="translate(1.529 282.135)">
		<path id="Path_1416" class="st0" d="M37.8,38.8c-6,0-10.6-4.6-12.9-8.8l0,0l0-0.1C24.3,29,24,28,23.8,27c-0.2-0.6-0.3-1.2-0.4-1.9
			c-0.8-4.5-1.2-13.3,2.4-18.2c3.5-4.7,9-4.5,12-3.6c3-0.9,8.5-1.1,12,3.6c3.3,4.5,3.1,13,2.8,16.1c-0.1,1.1-1.1,1.9-2.1,1.8
			c-1.1-0.1-1.8-1-1.8-2.1c0.4-5.3-0.4-11.1-2.1-13.4c-2.9-4-8-2.1-8.2-2c-0.5,0.2-1,0.2-1.4,0c-0.2-0.1-5.2-1.9-8.2,2
			c-2.3,3.2-2.6,10-1.7,15.2c0.1,0.6,0.2,1.1,0.3,1.6c0.2,0.7,0.4,1.4,0.7,2c0,0,0,0.1,0.1,0.1c1.7,3.1,5.3,6.8,9.5,6.8
			c2.1-0.1,4.1-0.9,5.7-2.2c1.2-1,2.2-2.1,3.1-3.4c0.6-0.9,1.8-1.2,2.7-0.6c0.9,0.6,1.2,1.8,0.6,2.7c0,0-0.1,0.1-0.1,0.1
			c-1.1,1.6-2.4,3-3.9,4.3C43.7,37.7,40.8,38.8,37.8,38.8z"/>
		<path id="Path_1417" class="st1" d="M50.7,7.8L50.7,7.8L50.7,7.8c-0.5-1.1-2.9-5.6-12.9-5.6h0c-11.2,0-13,5.9-13,5.9v10.9h0.5
			c2.2-1.7,6.9-2.9,12.5-2.9h0c3.1,0,6.1,0.4,9,1.2l0,0c0.1,0,0.2,0.1,0.3,0.1l0.1,0c0.1,0,0.2,0.1,0.3,0.1l0.1,0l0.2,0.1l0.1,0.1
			l0.2,0.1l0.2,0.1l0.1,0.1l0.2,0.1l0.1,0.1c0.1,0,0.2,0.1,0.2,0.1l0.1,0c0.4,0.2,0.8,0.5,1.2,0.8h0.5V8C50.7,8,50.7,7.9,50.7,7.8z"
			/>
		<g id="Group_344-2" transform="translate(11.395)">
			<path id="Path_1418" class="st0" d="M39.4,20.9h-0.5c-0.4,0-0.9-0.1-1.2-0.4c-0.3-0.2-0.6-0.4-0.9-0.6l0,0
				c-0.1,0-0.1-0.1-0.2-0.1l-0.8-0.3l-0.2-0.1l-0.1,0l-0.3-0.1l-0.1,0c-0.1,0-0.2-0.1-0.3-0.1l0,0c-2.7-0.8-5.6-1.2-8.4-1.1h0
				c-5.6,0-9.7,1.2-11.3,2.5c-0.3,0.3-0.8,0.4-1.2,0.4h-0.5c-1.1,0-2-0.9-2-2V8c0-0.2,0-0.4,0.1-0.6c0.1-0.3,2.3-7.3,14.8-7.3h0
				c11,0,14,5.2,14.7,6.8v0c0.1,0.2,0.1,0.3,0.2,0.5c0,0.2,0.1,0.3,0.1,0.5v10.9C41.3,20,40.4,20.9,39.4,20.9z M15.4,8.4v7.5
				c3.5-1.3,7.3-1.9,11-1.8h0c3.3,0,6.5,0.4,9.6,1.3l0.1,0c0.1,0,0.2,0.1,0.3,0.1l0.1,0c0.1,0,0.2,0.1,0.3,0.1l0.1,0l0,0l0.3,0.1
				l0.1,0l0.1,0l0,0V8.4c-0.4-0.9-2.6-4.3-11-4.3h0C18.1,4.1,15.8,7.6,15.4,8.4L15.4,8.4z"/>
			<path id="Path_1419" class="st0" d="M35,45.5c-0.7,0-1.3-0.3-1.6-0.9c-1.2-2-2-4.3-2.4-6.7c-2.9,1.3-6.3,1.3-9.2,0
				c-0.3,2.3-1.1,4.5-2.2,6.5c-0.6,0.9-1.8,1.2-2.7,0.6c-0.9-0.6-1.2-1.8-0.6-2.7c1.3-2.4,2-5,2-7.7c0.1-1.1,1-1.9,2.1-1.8
				c0.4,0,0.7,0.1,1,0.4c3,2.4,7.2,2.4,10.2,0c0.9-0.6,2.1-0.4,2.7,0.5c0.2,0.3,0.3,0.7,0.4,1c0,2.8,0.7,5.5,2.1,7.9
				c0.6,0.9,0.3,2.1-0.6,2.7C35.7,45.4,35.3,45.5,35,45.5L35,45.5z"/>
		</g>
		<path id="Path_1420" class="st2" d="M61.6,67.7H14V57c0-7.3,5.9-13.3,13.3-13.3l8.4,6.8c1.3,1,3,1,4.3,0l8.4-6.8
			c7.3,0,13.3,5.9,13.3,13.3l0,0L61.6,67.7L61.6,67.7z"/>
		<path id="Path_1421" class="st0" d="M61.6,69.7H14c-1.1,0-2-0.9-2-2V57c0-8.4,6.8-15.2,15.2-15.2c0.4,0,0.9,0.2,1.2,0.4l8.4,6.8
			c0.5,0.4,1.3,0.4,1.8,0l8.4-6.8c0.3-0.3,0.8-0.4,1.2-0.4c8.4,0,15.2,6.8,15.2,15.2v10.7C63.6,68.8,62.7,69.7,61.6,69.7
			C61.6,69.7,61.6,69.7,61.6,69.7z M15.9,65.8h43.7V57c0-6-4.7-10.9-10.7-11.3L41.2,52c-2,1.6-4.8,1.6-6.7,0l-7.8-6.3
			c-6,0.4-10.7,5.3-10.7,11.3L15.9,65.8L15.9,65.8z"/>
	</g>
</g>
</svg>
