<svg id="Layer_1" data-name="Layer 1" xmlns="http://www.w3.org/2000/svg" viewBox="0 0 3778.5 1156.2"><defs><style>.cls-1{fill:#040345;}.cls-2{fill:#45eaaa;}.cls-3{fill:#1a9d99;}.cls-4{fill:#fff;}</style></defs><title>bulut-klinik-logo-dark</title><g id="Group_1816" data-name="Group 1816"><path id="Path_29" data-name="Path 29" class="cls-1" d="M2355.8,1175.4a165.11,165.11,0,0,1-3.8,45.4,43.18,43.18,0,0,1-16,21.6,45.7,45.7,0,0,1-26.1,7.3,43.38,43.38,0,0,1-25.9-7.5,41.44,41.44,0,0,1-15.3-20.8,164.6,164.6,0,0,1-4.7-47.9V1055.2h-62.3v102.2a300.13,300.13,0,0,0,7.2,81.3A95,95,0,0,0,2244,1289a108.92,108.92,0,0,0,65.3,18.1,111.22,111.22,0,0,0,61.4-15.5,95.55,95.55,0,0,0,36.6-44.3,257.5,257.5,0,0,0,10.2-88.1v-104h-61.7Z" transform="translate(-468 -580.5)"/><rect id="Rectangle_40" data-name="Rectangle 40" class="cls-1" x="2014.7" y="379.8" width="61.6" height="340.4"/><path id="Path_30" data-name="Path 30" class="cls-1" d="M2764.4,1175.4a161.33,161.33,0,0,1-3.8,45.4,43.18,43.18,0,0,1-16,21.6,45.7,45.7,0,0,1-26.1,7.3,43.38,43.38,0,0,1-25.9-7.5,41.44,41.44,0,0,1-15.3-20.8,164.6,164.6,0,0,1-4.7-47.9V1055.2h-62.3v102.2a304.54,304.54,0,0,0,7.2,81.3,95,95,0,0,0,35.1,50.3,109,109,0,0,0,65.4,18.1,111.22,111.22,0,0,0,61.4-15.5,95.34,95.34,0,0,0,36.5-44.3,254.79,254.79,0,0,0,10.2-88.1v-104h-61.6Z" transform="translate(-468 -580.5)"/><path id="Path_31" data-name="Path 31" class="cls-1" d="M2967.2,960.3h-61.7v94.8h-31.6v53h31.6v192.6h61.7V1108.1h36.5v-53h-36.5Z" transform="translate(-468 -580.5)"/><rect id="Rectangle_41" data-name="Rectangle 41" class="cls-1" x="2884.5" y="379.8" width="61.6" height="340.4"/><rect id="Rectangle_42" data-name="Rectangle 42" class="cls-1" x="3021.2" y="474.6" width="61.6" height="245.6"/><rect id="Rectangle_43" data-name="Rectangle 43" class="cls-1" x="3429.8" y="474.6" width="61.6" height="245.6"/><path id="Path_32" data-name="Path 32" class="cls-1" d="M3521.6,953.4a37.8,37.8,0,1,0,37.7,37.9v-.1h0A37.81,37.81,0,0,0,3521.6,953.4Z" transform="translate(-468 -580.5)"/><path id="Path_33" data-name="Path 33" class="cls-1" d="M3930.2,953.4a37.8,37.8,0,1,0,37.7,37.9v-.1h0A37.81,37.81,0,0,0,3930.2,953.4Z" transform="translate(-468 -580.5)"/><path id="Path_34" data-name="Path 34" class="cls-1" d="M2025.3,1048.8a178,178,0,0,0-77.6,16.9V960.3h-61.1v231.5a114.34,114.34,0,0,0,26.8,76.5,115.58,115.58,0,0,0,34.3,26.2,142.92,142.92,0,0,0,93.9,10.7,110.28,110.28,0,0,0,64.4-35.1,128.79,128.79,0,0,0,34.7-91.7,132.29,132.29,0,0,0-33.6-93.3A107.5,107.5,0,0,0,2025.3,1048.8Zm34.7,181.3a67.1,67.1,0,0,1-11.6,9.7l-.5.3a66.69,66.69,0,0,1-23.5,9.4,67.54,67.54,0,0,1-11.9,1.1,63.9,63.9,0,0,1-48.3-20.1,73.45,73.45,0,0,1-19.2-53,71.56,71.56,0,0,1,19.2-51.9,64.51,64.51,0,0,1,48.3-19.8,67.27,67.27,0,0,1,17.9,2.5l3.7,1.1a63.89,63.89,0,0,1,15.4,7.3,68.76,68.76,0,0,1,10.9,9.3,72.23,72.23,0,0,1,18.9,51.8,74,74,0,0,1-19.3,52.3Z" transform="translate(-468 -580.5)"/><path id="Path_35" data-name="Path 35" class="cls-1" d="M3791.5,1066.8a108.83,108.83,0,0,0-65.3-18,111.22,111.22,0,0,0-61.4,15.5,95.55,95.55,0,0,0-36.6,44.3,257.5,257.5,0,0,0-10.2,88.1v104h61.7V1180.4a169.08,169.08,0,0,1,3.8-45.4,42.93,42.93,0,0,1,16-21.5,44.62,44.62,0,0,1,26.1-7.4,43.38,43.38,0,0,1,25.9,7.5,42.12,42.12,0,0,1,15.3,20.9,164.26,164.26,0,0,1,4.7,47.9v118.3h62.3V1198.4a304.54,304.54,0,0,0-7.2-81.3A95.91,95.91,0,0,0,3791.5,1066.8Z" transform="translate(-468 -580.5)"/><path id="Path_36" data-name="Path 36" class="cls-1" d="M3286.6,1055.1h-77.4l-68.7,76.7V960.3h-61.7v340.4h61.7v-89.5l82.3,89.5h76.5l-118.5-127.9Z" transform="translate(-468 -580.5)"/><path id="Path_37" data-name="Path 37" class="cls-1" d="M4246.5,1300.7,4128,1172.8l105.9-117.7h-77.4l-68.8,76.7V960.3h-61.6v340.4h61.6v-89.5l82.3,89.5Z" transform="translate(-468 -580.5)"/></g><g id="Group_1821" data-name="Group 1821"><g id="Group_341" data-name="Group 341"><path id="Rectangle_27" data-name="Rectangle 27" class="cls-2" d="M781.8,580.5h528.6c173.3,0,313.8,140.5,313.8,313.8v528.6c0,173.3-140.5,313.8-313.8,313.8H781.8c-173.3,0-313.8-140.5-313.8-313.8V894.3C468,721,608.5,580.5,781.8,580.5Z" transform="translate(-468 -580.5)"/><g id="Group_1819" data-name="Group 1819"><path id="Path_1519" data-name="Path 1519" class="cls-3" d="M749.9,965h0a127.26,127.26,0,0,0-.2,179.9l.3.3a127.44,127.44,0,0,0,180.2.5h0l.2-.3,90.1-90-90.4-90.5a127.53,127.53,0,0,0-180.2,0h0Z" transform="translate(-468 -580.5)"/><path id="Path_1527" data-name="Path 1527" class="cls-4" d="M1327.2,990.9a127.53,127.53,0,0,0-180.2,0l-127.3,127.3h-.5L947.4,1190a127.5,127.5,0,0,1-157.7,17.8l70.2,70.2h0l90,90a127.29,127.29,0,0,0,180,.2l.2-.2h0l197.1-197h0A127.41,127.41,0,0,0,1327.2,990.9Z" transform="translate(-468 -580.5)"/></g></g></g></svg>