<svg id="katman_1" data-name="katman 1" xmlns="http://www.w3.org/2000/svg" viewBox="0 0 100 112.04"><defs><style>.cls-1,.cls-2{fill:#1dbab5;}.cls-2{opacity:0.1;isolation:isolate;}</style></defs><title>icon-recete</title><g id="Group_1842" data-name="Group 1842"><g id="Group_1840" data-name="Group 1840"><path id="Path_1542" data-name="Path 1542" class="cls-1" d="M81.09,36.73A18.84,18.84,0,0,0,62.7,17.89V-4.74A4.28,4.28,0,0,0,58.42-9H47.48v-1.82A4.28,4.28,0,0,0,43.2-15.1H36.72l-1.89-3.74A4.25,4.25,0,0,0,31-21.19H12.76A4.25,4.25,0,0,0,9-18.84L7.07-15.1H.58a4.27,4.27,0,0,0-4.27,4.27V-9h-11a4.27,4.27,0,0,0-4.27,4.27V86.58a4.27,4.27,0,0,0,4.27,4.27H58.42a4.27,4.27,0,0,0,4.27-4.27V62.94L75.56,50.07A18.75,18.75,0,0,0,81.09,36.73Zm-54.49,9A18.86,18.86,0,0,0,53.27,72.36l.88-.88V82.31H-10.36V-.47h6.67V4.39A4.27,4.27,0,0,0,.58,8.66H43.2a4.28,4.28,0,0,0,4.28-4.27V-.47h6.67V19.69a18.91,18.91,0,0,0-5.25,3.7ZM4.86.12V-6.56H9.72a4.25,4.25,0,0,0,3.8-2.35l1.88-3.73h13l1.88,3.73a4.26,4.26,0,0,0,3.81,2.35h4.86V.12ZM69.73,44.23,47.43,66.52a10.6,10.6,0,0,1-15,0,10.59,10.59,0,0,1,0-15l10-10,10.3,10.3A4.13,4.13,0,0,0,58.54,46h0l-10.3-10.3,6.5-6.49a10.6,10.6,0,0,1,15,15Z" transform="translate(18.91 21.19)"/><path id="Path_1543" data-name="Path 1543" class="cls-1" d="M27.82,19.05H2.94a4.13,4.13,0,0,0-4.13,4.13h0A4.13,4.13,0,0,0,2.94,27.3H27.82A4.13,4.13,0,0,0,32,23.18h0a4.13,4.13,0,0,0-4.13-4.13Z" transform="translate(18.91 21.19)"/><path id="Path_1544" data-name="Path 1544" class="cls-1" d="M11,32.76H2.94a4.13,4.13,0,0,0-4.13,4.13h0A4.13,4.13,0,0,0,2.94,41H11a4.12,4.12,0,0,0,4.12-4.12h0A4.12,4.12,0,0,0,11,32.76Z" transform="translate(18.91 21.19)"/></g><path id="Path_1545" data-name="Path 1545" class="cls-2" d="M-15.64-3.83H1.57L4.18,3.61H39.83l2.79-7.44H58.71v24.7S38.31,41.14,30.3,50.11,26.56,67,33.14,70.37s22.4.25,22.85-1.08S58.7,85.38,58.7,85.38H-15.64Z" transform="translate(18.91 21.19)"/></g></svg>